<svg width="378" height="103" viewBox="0 0 378 103" fill="none" xmlns="http://www.w3.org/2000/svg">
<circle cx="42.5" cy="48.5" r="42.5" fill="white"/>
<path d="M70.5966 36H62.6705C62.2017 33.7202 61.3814 31.7173 60.2095 29.9915C59.0589 28.2656 57.6527 26.8168 55.9908 25.6449C54.3501 24.4517 52.5284 23.5568 50.5256 22.9602C48.5227 22.3636 46.4347 22.0653 44.2614 22.0653C40.2983 22.0653 36.7081 23.0668 33.4908 25.0696C30.2947 27.0724 27.7486 30.0234 25.8523 33.9226C23.9773 37.8217 23.0398 42.6051 23.0398 48.2727C23.0398 53.9403 23.9773 58.7237 25.8523 62.6229C27.7486 66.522 30.2947 69.473 33.4908 71.4759C36.7081 73.4787 40.2983 74.4801 44.2614 74.4801C46.4347 74.4801 48.5227 74.1818 50.5256 73.5852C52.5284 72.9886 54.3501 72.1044 55.9908 70.9325C57.6527 69.7393 59.0589 68.2798 60.2095 66.554C61.3814 64.8068 62.2017 62.804 62.6705 60.5455H70.5966C70 63.8906 68.9134 66.8842 67.3366 69.5263C65.7599 72.1683 63.7997 74.4162 61.456 76.2699C59.1122 78.1023 56.4808 79.4979 53.5618 80.4567C50.6641 81.4155 47.5639 81.8949 44.2614 81.8949C38.679 81.8949 33.7145 80.5312 29.3679 77.804C25.0213 75.0767 21.6016 71.1989 19.1087 66.1705C16.6158 61.142 15.3693 55.1761 15.3693 48.2727C15.3693 41.3693 16.6158 35.4034 19.1087 30.375C21.6016 25.3466 25.0213 21.4687 29.3679 18.7415C33.7145 16.0142 38.679 14.6506 44.2614 14.6506C47.5639 14.6506 50.6641 15.13 53.5618 16.0888C56.4808 17.0476 59.1122 18.4538 61.456 20.3075C63.7997 22.1399 65.7599 24.3771 67.3366 27.0192C68.9134 29.6399 70 32.6335 70.5966 36Z" fill="black"/>
<path d="M109.847 82.0227C105.415 82.0227 101.526 80.968 98.1811 78.8587C94.8572 76.7493 92.2578 73.7983 90.3828 70.0057C88.5291 66.2131 87.6023 61.7812 87.6023 56.7102C87.6023 51.5966 88.5291 47.1328 90.3828 43.3189C92.2578 39.505 94.8572 36.5433 98.1811 34.4339C101.526 32.3246 105.415 31.2699 109.847 31.2699C114.278 31.2699 118.156 32.3246 121.48 34.4339C124.825 36.5433 127.425 39.505 129.278 43.3189C131.153 47.1328 132.091 51.5966 132.091 56.7102C132.091 61.7812 131.153 66.2131 129.278 70.0057C127.425 73.7983 124.825 76.7493 121.48 78.8587C118.156 80.968 114.278 82.0227 109.847 82.0227ZM109.847 75.2472C113.213 75.2472 115.983 74.3842 118.156 72.6584C120.33 70.9325 121.938 68.6634 122.982 65.8509C124.026 63.0384 124.548 59.9915 124.548 56.7102C124.548 53.429 124.026 50.3714 122.982 47.5376C121.938 44.7038 120.33 42.4134 118.156 40.6662C115.983 38.919 113.213 38.0455 109.847 38.0455C106.48 38.0455 103.71 38.919 101.537 40.6662C99.3636 42.4134 97.755 44.7038 96.7109 47.5376C95.6669 50.3714 95.1449 53.429 95.1449 56.7102C95.1449 59.9915 95.6669 63.0384 96.7109 65.8509C97.755 68.6634 99.3636 70.9325 101.537 72.6584C103.71 74.3842 106.48 75.2472 109.847 75.2472ZM151.147 51.4688V81H143.605V31.9091H150.892V39.5795H151.531C152.681 37.0866 154.428 35.0838 156.772 33.571C159.116 32.0369 162.142 31.2699 165.849 31.2699C169.173 31.2699 172.081 31.9517 174.574 33.3153C177.067 34.6577 179.006 36.7031 180.391 39.4517C181.776 42.179 182.468 45.6307 182.468 49.8068V81H174.926V50.3182C174.926 46.4616 173.924 43.4574 171.921 41.3054C169.919 39.1321 167.17 38.0455 163.676 38.0455C161.268 38.0455 159.116 38.5675 157.22 39.6115C155.345 40.6555 153.864 42.179 152.777 44.1818C151.691 46.1847 151.147 48.6136 151.147 51.4688ZM203.794 51.4688V81H196.251V31.9091H203.538V39.5795H204.177C205.328 37.0866 207.075 35.0838 209.419 33.571C211.762 32.0369 214.788 31.2699 218.495 31.2699C221.819 31.2699 224.728 31.9517 227.221 33.3153C229.713 34.6577 231.652 36.7031 233.037 39.4517C234.422 42.179 235.115 45.6307 235.115 49.8068V81H227.572V50.3182C227.572 46.4616 226.571 43.4574 224.568 41.3054C222.565 39.1321 219.816 38.0455 216.322 38.0455C213.914 38.0455 211.762 38.5675 209.866 39.6115C207.991 40.6555 206.51 42.179 205.424 44.1818C204.337 46.1847 203.794 48.6136 203.794 51.4688ZM269.48 82.0227C264.75 82.0227 260.67 80.9787 257.239 78.8906C253.83 76.7812 251.199 73.8409 249.345 70.0696C247.513 66.277 246.596 61.8665 246.596 56.8381C246.596 51.8097 247.513 47.3778 249.345 43.5426C251.199 39.6861 253.777 36.6818 257.079 34.5298C260.403 32.3565 264.281 31.2699 268.713 31.2699C271.27 31.2699 273.795 31.696 276.287 32.5483C278.78 33.4006 281.05 34.7855 283.095 36.7031C285.14 38.5994 286.77 41.1136 287.985 44.2457C289.199 47.3778 289.807 51.2344 289.807 55.8153V59.0114H251.966V52.4915H282.136C282.136 49.7216 281.582 47.25 280.474 45.0767C279.388 42.9034 277.832 41.1882 275.808 39.9311C273.805 38.674 271.44 38.0455 268.713 38.0455C265.709 38.0455 263.109 38.7912 260.915 40.2827C258.741 41.7528 257.069 43.6705 255.897 46.0355C254.725 48.4006 254.139 50.9361 254.139 53.642V57.9886C254.139 61.696 254.778 64.8388 256.057 67.4169C257.356 69.9737 259.157 71.9233 261.458 73.2656C263.759 74.5866 266.433 75.2472 269.48 75.2472C271.461 75.2472 273.251 74.9702 274.849 74.4162C276.469 73.8409 277.864 72.9886 279.036 71.8594C280.208 70.7088 281.113 69.2812 281.753 67.5767L289.04 69.6222C288.273 72.0938 286.983 74.267 285.172 76.142C283.361 77.9957 281.124 79.4446 278.461 80.4886C275.797 81.5114 272.804 82.0227 269.48 82.0227ZM321.224 82.0227C316.621 82.0227 312.658 80.9361 309.334 78.7628C306.01 76.5895 303.454 73.5959 301.664 69.782C299.874 65.968 298.979 61.6108 298.979 56.7102C298.979 51.7244 299.895 47.3246 301.728 43.5107C303.581 39.6754 306.16 36.6818 309.462 34.5298C312.786 32.3565 316.664 31.2699 321.096 31.2699C324.547 31.2699 327.658 31.9091 330.428 33.1875C333.198 34.4659 335.467 36.2557 337.236 38.5568C339.004 40.858 340.101 43.5426 340.528 46.6108H332.985C332.41 44.3736 331.131 42.392 329.15 40.6662C327.189 38.919 324.547 38.0455 321.224 38.0455C318.283 38.0455 315.705 38.8125 313.489 40.3466C311.295 41.8594 309.579 44.0007 308.344 46.7706C307.129 49.5192 306.522 52.7472 306.522 56.4545C306.522 60.2472 307.118 63.5497 308.312 66.3622C309.526 69.1747 311.231 71.3587 313.425 72.9141C315.641 74.4695 318.241 75.2472 321.224 75.2472C323.184 75.2472 324.963 74.9062 326.561 74.2244C328.159 73.5426 329.512 72.5625 330.62 71.2841C331.728 70.0057 332.516 68.4716 332.985 66.6818H340.528C340.101 69.5795 339.047 72.1896 337.363 74.5121C335.702 76.8132 333.496 78.6456 330.748 80.0092C328.02 81.3516 324.846 82.0227 321.224 82.0227ZM372.903 31.9091V38.3011H347.463V31.9091H372.903ZM354.878 20.1477H362.42V66.9375C362.42 69.0682 362.729 70.6662 363.347 71.7315C363.986 72.7756 364.796 73.4787 365.776 73.8409C366.778 74.1818 367.832 74.3523 368.94 74.3523C369.771 74.3523 370.453 74.3097 370.986 74.2244C371.518 74.1179 371.944 74.0327 372.264 73.9688L373.798 80.7443C373.287 80.9361 372.573 81.1278 371.657 81.3196C370.741 81.5327 369.579 81.6392 368.173 81.6392C366.042 81.6392 363.954 81.1811 361.909 80.2649C359.885 79.3487 358.202 77.9531 356.859 76.0781C355.538 74.2031 354.878 71.8381 354.878 68.983V20.1477Z" fill="white"/>
</svg>
